<?xml version="1.0" standalone="no"?><!-- Generator: Gravit.io --><svg xmlns="http://www.w3.org/2000/svg" xmlns:xlink="http://www.w3.org/1999/xlink" style="isolation:isolate" viewBox="0 0 595.276 841.89" width="595.276" height="841.89"><defs><clipPath id="_clipPath_Vj8UF27XpismQAqmlYJNe43jbDv8Uyb5"><rect width="595.276" height="841.89"/></clipPath></defs><g clip-path="url(#_clipPath_Vj8UF27XpismQAqmlYJNe43jbDv8Uyb5)"><g id="Group"><g id="Group"><linearGradient id="_lgradient_4" x1="38.89185566681251%" y1="-26.33399706013646%" x2="31.439736861175426%" y2="129.28951954874412%"><stop offset="0.8695652173913043%" stop-opacity="1" style="stop-color:rgb(72,212,255)"/><stop offset="96.52173913043478%" stop-opacity="1" style="stop-color:rgb(196,255,128)"/></linearGradient><path d=" M 213.407 256.225 L 295.608 69.849 L 379.49 281.928 L 233.053 281.928" fill="none" vector-effect="non-scaling-stroke" stroke-width="19" stroke="url(#_lgradient_4)" stroke-linejoin="round" stroke-linecap="round" stroke-miterlimit="3"/><linearGradient id="_lgradient_5" x1="38.89185566681251%" y1="-26.33399706013646%" x2="31.439736861175426%" y2="129.28951954874412%"><stop offset="0.8695652173913043%" stop-opacity="1" style="stop-color:rgb(72,212,255)"/><stop offset="96.52173913043478%" stop-opacity="1" style="stop-color:rgb(196,255,128)"/></linearGradient><path d=" M 192.684 308.001 L 175.324 345.235 L 264 345.235 L 409.561 345.235 L 441.215 413.29 L 150.002 413.29 L 113.6 494.007 L 468.12 494.007 L 495.026 573.141 L 81.946 573.141 L 42.379 672.85 L 522.484 676.015 L 511.002 676.015 L 511.002 676.015" fill="none" vector-effect="non-scaling-stroke" stroke-width="19" stroke="url(#_lgradient_5)" stroke-linejoin="round" stroke-linecap="round" stroke-miterlimit="3"/><linearGradient id="_lgradient_6" x1="38.89185566681251%" y1="-26.33399706013646%" x2="31.439736861175426%" y2="129.28951954874412%"><stop offset="0.8695652173913043%" stop-opacity="1" style="stop-color:rgb(72,212,255)"/><stop offset="96.52173913043478%" stop-opacity="1" style="stop-color:rgb(196,255,128)"/></linearGradient><line x1="200.418" y1="282.068" x2="206.842" y2="282.068" vector-effect="non-scaling-stroke" stroke-width="19" stroke="url(#_lgradient_6)" stroke-linejoin="miter" stroke-linecap="round" stroke-miterlimit="3"/><linearGradient id="_lgradient_7" x1="101.32158590308433%" y1="49.999999999999986%" x2="-3.3306690738754696e-13%" y2="49.99999999999999%"><stop offset="1.3043478260869565%" stop-opacity="1" style="stop-color:rgb(173,247,152)"/><stop offset="100%" stop-opacity="1" style="stop-color:rgb(102,222,225)"/></linearGradient><path d=" M 271.608 626.077 C 271.608 609.265 282.362 595.616 295.608 595.616 C 308.854 595.616 319.608 609.265 319.608 626.077 C 319.608 642.889 308.854 656.539 295.608 656.539 C 282.362 656.539 271.608 642.889 271.608 626.077 Z " fill="url(#_lgradient_7)"/></g></g></g></svg>